/* XPM */
static char * coins_xpm[] = {
"16 16 10 1",
" 	c #4F230F",
".	c #583B1A",
"+	c #6E4E2A",
"@	c #4F170C",
"#	c #000000",
"$	c #6E4527",
"%	c #FFEC00",
"&	c #BAB13B",
"*	c #414141",
"=	c #9E6338",
"     .+++++++@  ",
"    .++++++++@  ",
" ..+++####$++@ .",
".+++##%%&%##+@++",
"+++#%&%%%&%%#@++",
"+++#%%&%%%&%#@++",
"++#&%*%&%%*&%#++",
"@@#%&*%%&%*%&#@@",
"++#%%&%%%&%%%#..",
"++#&%%&*%%&%%#++",
"+++#&%*&*%%&#+++",
"+++#%&%*&%%%#+++",
"=$++##&%%&##+=$+",
"==$$++####++===$",
"=====++++@======",
"@@@@@@@@@@@@@@@@"};
